<svg width="320" height="320" viewBox="0 0 320 320" xmlns="http://www.w3.org/2000/svg">
  <rect width="320" height="320" rx="64" fill="#FFF4E7"/>
  <ellipse cx="160" cy="248" rx="86" ry="24" fill="#E7CFB5"/>
  <path d="M84 184C84 149 118 123 160 123C202 123 236 149 236 184C236 221 202 246 160 246C118 246 84 221 84 184Z" fill="#FFFDF9" stroke="#2B201C" stroke-width="8"/>
  <path d="M104 180C104 158 129 144 160 144C191 144 216 158 216 180C216 203 191 217 160 217C129 217 104 203 104 180Z" fill="#FFD98D"/>
  <ellipse cx="142" cy="180" rx="20" ry="12" fill="#FFA952"/>
  <ellipse cx="183" cy="185" rx="17" ry="10" fill="#9BCB67"/>
  <circle cx="160" cy="176" r="8" fill="#FFF7EB"/>
  <path d="M213 120L250 88" stroke="#7AB7F0" stroke-width="13" stroke-linecap="round"/>
  <path d="M74 107C87 84 112 73 131 77" stroke="#F7C27A" stroke-width="12" stroke-linecap="round"/>
  <path d="M160 74C172 55 196 51 215 60" stroke="#9DE1D0" stroke-width="12" stroke-linecap="round"/>
</svg>
