<svg width="240" height="240" viewBox="0 0 240 240" xmlns="http://www.w3.org/2000/svg">
  <defs>
    <linearGradient id="bg" x1="0" y1="0" x2="1" y2="1">
      <stop offset="0%" stop-color="#EAF7FF"/>
      <stop offset="100%" stop-color="#CBE7FF"/>
    </linearGradient>
  </defs>
  <circle cx="120" cy="120" r="114" fill="url(#bg)"/>
  <ellipse cx="120" cy="202" rx="68" ry="34" fill="#7BC2F7"/>
  <path d="M72 101C72 69 94 49 120 49C146 49 168 69 168 101V123H72V101Z" fill="#2B2322"/>
  <path d="M96 56L78 78L102 73L116 55Z" fill="#2B2322"/>
  <path d="M144 56L124 55L138 74L162 78Z" fill="#2B2322"/>
  <ellipse cx="120" cy="119" rx="50" ry="55" fill="#FFD9B8"/>
  <circle cx="101" cy="114" r="5" fill="#2B1E1B"/>
  <circle cx="139" cy="114" r="5" fill="#2B1E1B"/>
  <path d="M108 132C114 136 126 136 132 132" stroke="#CA7A69" stroke-width="6" stroke-linecap="round"/>
  <ellipse cx="89" cy="125" rx="7" ry="5" fill="#F7B2A8" opacity="0.8"/>
  <ellipse cx="151" cy="125" rx="7" ry="5" fill="#F7B2A8" opacity="0.8"/>
  <path d="M86 160H154L164 205H76L86 160Z" fill="#F4A93D"/>
  <path d="M98 160H142V172H98Z" fill="#FFF6E8"/>
  <circle cx="74" cy="120" r="14" fill="#FFD9B8"/>
  <circle cx="166" cy="120" r="14" fill="#FFD9B8"/>
</svg>
