<svg width="240" height="240" viewBox="0 0 240 240" xmlns="http://www.w3.org/2000/svg">
  <defs>
    <linearGradient id="bg" x1="0" y1="0" x2="1" y2="1">
      <stop offset="0%" stop-color="#FFF0E7"/>
      <stop offset="100%" stop-color="#FFD7DE"/>
    </linearGradient>
  </defs>
  <circle cx="120" cy="120" r="114" fill="url(#bg)"/>
  <ellipse cx="120" cy="202" rx="68" ry="34" fill="#FF9AA8"/>
  <path d="M62 104C62 66 88 44 120 44C152 44 178 66 178 104V138H62V104Z" fill="#2B2020"/>
  <circle cx="72" cy="95" r="16" fill="#2B2020"/>
  <circle cx="168" cy="95" r="16" fill="#2B2020"/>
  <circle cx="72" cy="95" r="9" fill="#FF8FA2"/>
  <circle cx="168" cy="95" r="9" fill="#FF8FA2"/>
  <ellipse cx="120" cy="120" rx="50" ry="57" fill="#FFD9B8"/>
  <path d="M84 94C93 84 105 79 120 79C135 79 147 84 156 94" stroke="#2B2020" stroke-width="8" stroke-linecap="round"/>
  <circle cx="101" cy="114" r="5" fill="#2B1E1B"/>
  <circle cx="139" cy="114" r="5" fill="#2B1E1B"/>
  <path d="M108 132C114 137 126 137 132 132" stroke="#CA7A69" stroke-width="6" stroke-linecap="round"/>
  <ellipse cx="89" cy="126" rx="7" ry="5" fill="#F7B2A8" opacity="0.82"/>
  <ellipse cx="151" cy="126" rx="7" ry="5" fill="#F7B2A8" opacity="0.82"/>
  <path d="M88 160H152L164 205H76L88 160Z" fill="#FF8C78"/>
  <path d="M98 160H142V172H98Z" fill="#FFF2EE"/>
  <circle cx="76" cy="122" r="14" fill="#FFD9B8"/>
  <circle cx="164" cy="122" r="14" fill="#FFD9B8"/>
</svg>
